<svg width="201" height="32" viewBox="0 0 201 32" fill="none" xmlns="http://www.w3.org/2000/svg">
<path d="M13.1734 25.5593C10.7553 25.5593 8.56322 25.0396 6.59711 24C4.65361 22.9379 3.11689 21.4802 1.98695 19.6271C0.8796 17.7514 0.325928 15.6384 0.325928 13.2881C0.325928 10.9379 0.8796 8.83616 1.98695 6.98305C3.11689 5.10735 4.65361 3.64972 6.59711 2.61017C8.56322 1.54802 10.7666 1.01695 13.2073 1.01695C15.2638 1.01695 17.1169 1.37853 18.7666 2.1017C20.4389 2.82486 21.8401 3.86441 22.97 5.22034L19.4446 8.47458C17.8401 6.62147 15.8514 5.69492 13.4785 5.69492C12.0095 5.69492 10.6988 6.0226 9.54627 6.67797C8.39372 7.31074 7.48977 8.20339 6.8344 9.35593C6.20163 10.5085 5.88525 11.8192 5.88525 13.2881C5.88525 14.7571 6.20163 16.0678 6.8344 17.2203C7.48977 18.3729 8.39372 19.2768 9.54627 19.9322C10.6988 20.565 12.0095 20.8814 13.4785 20.8814C15.8514 20.8814 17.8401 19.9435 19.4446 18.0678L22.97 21.322C21.8401 22.7006 20.4389 23.7514 18.7666 24.4746C17.0943 25.1977 15.2299 25.5593 13.1734 25.5593Z" fill="white"/>
<path d="M44.4072 6.91525L36.1699 26.2712C35.3338 28.3729 34.2942 29.8531 33.0513 30.7119C31.831 31.5706 30.3507 32 28.6106 32C27.6615 32 26.7236 31.8531 25.7971 31.5593C24.8705 31.2655 24.1134 30.8588 23.5259 30.339L25.4581 26.5763C25.8649 26.9379 26.3281 27.2203 26.8479 27.4237C27.3903 27.6271 27.9214 27.7288 28.4411 27.7288C29.1643 27.7288 29.7519 27.548 30.2038 27.1864C30.6558 26.8475 31.0626 26.2712 31.4242 25.4576L31.492 25.2881L23.5937 6.91525H29.0513L34.1699 19.2881L39.3225 6.91525H44.4072Z" fill="white"/>
<path d="M57.3447 6.64407C59.0396 6.64407 60.5764 7.03955 61.9549 7.83051C63.356 8.59887 64.4521 9.69492 65.243 11.1186C66.034 12.5198 66.4295 14.1582 66.4295 16.0339C66.4295 17.9096 66.034 19.5593 65.243 20.9831C64.4521 22.3842 63.356 23.4802 61.9549 24.2712C60.5764 25.0396 59.0396 25.4237 57.3447 25.4237C54.8363 25.4237 52.9267 24.6328 51.6159 23.0508V25.1525H46.5651V0H51.8532V8.84746C53.1865 7.37853 55.017 6.64407 57.3447 6.64407ZM56.4295 21.0847C57.7854 21.0847 58.8928 20.6328 59.7515 19.7288C60.6329 18.8023 61.0735 17.5706 61.0735 16.0339C61.0735 14.4972 60.6329 13.2768 59.7515 12.3729C58.8928 11.4463 57.7854 10.9831 56.4295 10.9831C55.0735 10.9831 53.9549 11.4463 53.0735 12.3729C52.2148 13.2768 51.7854 14.4972 51.7854 16.0339C51.7854 17.5706 52.2148 18.8023 53.0735 19.7288C53.9549 20.6328 55.0735 21.0847 56.4295 21.0847Z" fill="white"/>
<path d="M87.8339 16.1017C87.8339 16.1695 87.8 16.6441 87.7322 17.5254H73.9356C74.1842 18.6554 74.7717 19.548 75.6983 20.2034C76.6248 20.8588 77.7774 21.1864 79.1559 21.1864C80.1051 21.1864 80.9412 21.0508 81.6644 20.7797C82.4101 20.4859 83.0994 20.0339 83.7322 19.4237L86.5457 22.4746C84.8282 24.4407 82.3198 25.4237 79.0203 25.4237C76.9638 25.4237 75.1446 25.0282 73.5627 24.2373C71.9808 23.4237 70.7604 22.3051 69.9017 20.8814C69.0429 19.4576 68.6135 17.8418 68.6135 16.0339C68.6135 14.2486 69.0316 12.6441 69.8678 11.2203C70.7265 9.77401 71.8904 8.65537 73.3593 7.86441C74.8508 7.05085 76.5118 6.64407 78.3424 6.64407C80.1277 6.64407 81.7435 7.02825 83.1898 7.79661C84.6361 8.56497 85.7661 9.67232 86.5796 11.1186C87.4158 12.5424 87.8339 14.2034 87.8339 16.1017ZM78.3762 10.6441C77.1785 10.6441 76.1729 10.9831 75.3593 11.661C74.5457 12.339 74.0486 13.2655 73.8678 14.4407H82.8508C82.67 13.2881 82.1729 12.3729 81.3593 11.6949C80.5457 10.9944 79.5514 10.6441 78.3762 10.6441Z" fill="white"/>
<path d="M96.4054 9.32203C97.0381 8.44068 97.8856 7.77401 98.9478 7.32203C100.033 6.87006 101.275 6.64407 102.677 6.64407V11.5254C102.089 11.4802 101.694 11.4576 101.49 11.4576C99.976 11.4576 98.7896 11.887 97.9308 12.7458C97.072 13.5819 96.6427 14.8475 96.6427 16.5424V25.1525H91.3545V6.91525H96.4054V9.32203Z" fill="white"/>
<path d="M114.123 25.5593C112.247 25.5593 110.428 25.3107 108.665 24.8135C106.925 24.2938 105.524 23.6271 104.462 22.8135L106.326 18.678C107.343 19.4237 108.552 20.0226 109.953 20.4746C111.355 20.9265 112.756 21.1525 114.157 21.1525C115.716 21.1525 116.869 20.9265 117.614 20.4746C118.36 20 118.733 19.3785 118.733 18.6102C118.733 18.0452 118.507 17.5819 118.055 17.2203C117.626 16.8361 117.061 16.5311 116.36 16.3051C115.682 16.0791 114.756 15.8305 113.581 15.5593C111.773 15.1299 110.292 14.7006 109.14 14.2712C107.987 13.8418 106.993 13.1525 106.157 12.2034C105.343 11.2542 104.936 9.98869 104.936 8.40677C104.936 7.02824 105.309 5.7853 106.055 4.67795C106.801 3.54801 107.92 2.65535 109.411 1.99999C110.925 1.34462 112.767 1.01694 114.936 1.01694C116.451 1.01694 117.931 1.19773 119.377 1.55931C120.823 1.92089 122.089 2.44067 123.174 3.11863L121.479 7.28812C119.287 6.04519 117.095 5.42372 114.903 5.42372C113.366 5.42372 112.225 5.6723 111.479 6.16948C110.756 6.66665 110.394 7.32202 110.394 8.13558C110.394 8.94914 110.812 9.55931 111.648 9.96609C112.507 10.3503 113.807 10.7345 115.547 11.1186C117.355 11.548 118.835 11.9774 119.987 12.4068C121.14 12.8361 122.123 13.5141 122.936 14.4407C123.773 15.3672 124.191 16.6215 124.191 18.2034C124.191 19.5593 123.807 20.8022 123.038 21.9322C122.292 23.0395 121.162 23.9209 119.648 24.5763C118.134 25.2316 116.292 25.5593 114.123 25.5593Z" fill="#E03432"/>
<path d="M159.653 25.4237C157.732 25.4237 156.003 25.0282 154.466 24.2373C152.952 23.4237 151.766 22.3051 150.907 20.8813C150.048 19.4576 149.619 17.8418 149.619 16.0339C149.619 14.226 150.048 12.6102 150.907 11.1864C151.766 9.7627 152.952 8.65535 154.466 7.86439C156.003 7.05083 157.732 6.64406 159.653 6.64406C161.573 6.64406 163.291 7.05083 164.805 7.86439C166.319 8.65535 167.506 9.7627 168.364 11.1864C169.223 12.6102 169.653 14.226 169.653 16.0339C169.653 17.8418 169.223 19.4576 168.364 20.8813C167.506 22.3051 166.319 23.4237 164.805 24.2373C163.291 25.0282 161.573 25.4237 159.653 25.4237ZM159.653 21.0847C161.009 21.0847 162.116 20.6328 162.975 19.7288C163.856 18.8022 164.297 17.5706 164.297 16.0339C164.297 14.4972 163.856 13.2768 162.975 12.3729C162.116 11.4463 161.009 10.983 159.653 10.983C158.297 10.983 157.178 11.4463 156.297 12.3729C155.415 13.2768 154.975 14.4972 154.975 16.0339C154.975 17.5706 155.415 18.8022 156.297 19.7288C157.178 20.6328 158.297 21.0847 159.653 21.0847Z" fill="#E03432"/>
<path d="M178.238 9.32202C178.871 8.44066 179.718 7.774 180.78 7.32202C181.865 6.87004 183.108 6.64406 184.509 6.64406V11.5254C183.922 11.4802 183.526 11.4576 183.323 11.4576C181.809 11.4576 180.622 11.887 179.764 12.7458C178.905 13.5819 178.475 14.8474 178.475 16.5424V25.1525H173.187V6.91524H178.238V9.32202Z" fill="#E03432"/>
<path d="M200.045 24.2712C199.526 24.6554 198.881 24.9491 198.113 25.1525C197.367 25.3333 196.576 25.4237 195.74 25.4237C193.571 25.4237 191.887 24.87 190.689 23.7627C189.514 22.6554 188.927 21.0282 188.927 18.8813V11.3898H186.113V7.32202H188.927V2.88134H194.215V7.32202H198.757V11.3898H194.215V18.8135C194.215 19.5819 194.407 20.1808 194.791 20.6102C195.198 21.0169 195.763 21.2203 196.486 21.2203C197.322 21.2203 198.034 20.9943 198.622 20.5424L200.045 24.2712Z" fill="#E03432"/>
<path fill-rule="evenodd" clip-rule="evenodd" d="M138.35 6.64406C140.045 6.64406 141.582 7.03954 142.96 7.83049C144.361 8.59886 145.457 9.6949 146.248 11.1186C147.039 12.5198 147.435 14.1582 147.435 16.0339C147.435 17.9096 147.039 19.5593 146.248 20.983C145.457 22.3842 144.361 23.4802 142.96 24.2712C141.582 25.0395 140.045 25.4237 138.35 25.4237C136.022 25.4237 134.192 24.6893 132.858 23.2203V31.7288H127.57V6.91524H132.621V9.01694C133.932 7.43502 135.841 6.64406 138.35 6.64406ZM140.757 19.7288C139.898 20.6328 138.791 21.0847 137.435 21.0847C136.079 21.0847 134.96 20.6328 134.079 19.7288C133.22 18.8022 132.791 17.5706 132.791 16.0339C132.791 14.4972 133.22 13.2768 134.079 12.3729C134.96 11.4463 136.079 10.983 137.435 10.983C138.791 10.983 139.898 11.4463 140.757 12.3729C141.638 13.2768 142.079 14.4972 142.079 16.0339C142.079 17.5706 141.638 18.8022 140.757 19.7288Z" fill="#E03432"/>
</svg>
