<svg width="27" height="24" viewBox="0 0 27 24" fill="none" xmlns="http://www.w3.org/2000/svg">
<path fill-rule="evenodd" clip-rule="evenodd" d="M27 2C27 1.46957 26.7968 0.96086 26.4351 0.585787C26.0735 0.210714 25.5829 0 25.0714 0H1.92857C1.41708 0 0.92654 0.210714 0.564863 0.585787C0.203186 0.96086 0 1.46957 0 2C0 2.53043 0.203186 3.03914 0.564863 3.41421C0.92654 3.78929 1.41708 4 1.92857 4H25.0714C25.5829 4 26.0735 3.78929 26.4351 3.41421C26.7968 3.03914 27 2.53043 27 2ZM27 12C27 11.4696 26.7968 10.9609 26.4351 10.5858C26.0735 10.2107 25.5829 10 25.0714 10H13.5C12.9885 10 12.498 10.2107 12.1363 10.5858C11.7746 10.9609 11.5714 11.4696 11.5714 12C11.5714 12.5304 11.7746 13.0391 12.1363 13.4142C12.498 13.7893 12.9885 14 13.5 14H25.0714C25.5829 14 26.0735 13.7893 26.4351 13.4142C26.7968 13.0391 27 12.5304 27 12ZM27 22C27 21.4696 26.7968 20.9609 26.4351 20.5858C26.0735 20.2107 25.5829 20 25.0714 20H1.92857C1.41708 20 0.92654 20.2107 0.564863 20.5858C0.203186 20.9609 0 21.4696 0 22C0 22.5304 0.203186 23.0391 0.564863 23.4142C0.92654 23.7893 1.41708 24 1.92857 24H25.0714C25.5829 24 26.0735 23.7893 26.4351 23.4142C26.7968 23.0391 27 22.5304 27 22Z" fill="white"/>
</svg>
