<svg width="27" height="27" viewBox="0 0 27 27" fill="none" xmlns="http://www.w3.org/2000/svg">
<path d="M6.04342 26.454C5.7476 26.454 5.45385 26.3617 5.20315 26.1804C4.73615 25.842 4.518 25.2602 4.6451 24.6989L6.38208 17.0475L0.491335 11.8814C0.0583247 11.5034 -0.107092 10.9048 0.0706847 10.357C0.248462 9.8103 0.732147 9.42323 1.30482 9.37029L9.099 8.66268L12.1805 1.45128C12.4078 0.921449 12.9252 0.579285 13.5002 0.579285C14.0751 0.579285 14.5926 0.921449 14.8198 1.45004L17.9013 8.66268L25.6943 9.37029C26.2682 9.422 26.7519 9.8103 26.9296 10.357C27.1074 10.9037 26.943 11.5034 26.51 11.8814L20.6193 17.0464L22.3563 24.6976C22.4836 25.2602 22.2652 25.842 21.7984 26.1794C21.3327 26.5168 20.7116 26.5428 20.2211 26.248L13.5002 22.2316L6.77925 26.2503C6.55203 26.3852 6.29886 26.454 6.04342 26.454ZM13.5002 20.5014C13.7556 20.5014 14.0086 20.57 14.236 20.705L20.5789 24.4986L18.9396 17.2769C18.8226 16.763 18.997 16.2263 19.3942 15.8786L24.9564 11.0006L17.5975 10.3323C17.0677 10.2839 16.612 9.95079 16.405 9.46258L13.5002 2.6572L10.5919 9.46361C10.3871 9.94853 9.93144 10.2816 9.40285 10.33L2.04292 10.9983L7.60489 15.8764C8.00329 16.2251 8.17757 16.7607 8.05953 17.2759L6.42143 24.4974L12.7643 20.705C12.9916 20.57 13.2447 20.5014 13.5002 20.5014ZM9.03947 8.80214C9.03947 8.80214 9.03947 8.80338 9.03823 8.80441L9.03947 8.80214ZM17.9586 8.79885L17.9598 8.80111C17.9598 8.79988 17.9598 8.79988 17.9586 8.79885Z" fill="white"/>
</svg>
