<svg width="27" height="27" viewBox="0 0 27 27" fill="none" xmlns="http://www.w3.org/2000/svg">
<path d="M6.04317 26.454C5.74736 26.454 5.4536 26.3618 5.2029 26.1805C4.7359 25.842 4.51775 25.2603 4.64485 24.6989L6.38184 17.0475L0.49109 11.8815C0.0580806 11.5035 -0.107337 10.9048 0.0704406 10.3571C0.248218 9.81036 0.731903 9.42329 1.30458 9.37035L9.09876 8.66274L12.1803 1.45134C12.4075 0.92151 12.925 0.579346 13.4999 0.579346C14.0749 0.579346 14.5923 0.92151 14.8196 1.4501L17.9011 8.66274L25.694 9.37035C26.2679 9.42206 26.7516 9.81036 26.9294 10.3571C27.1072 10.9038 26.9428 11.5035 26.5098 11.8815L20.619 17.0465L22.356 24.6977C22.4833 25.2603 22.265 25.842 21.7982 26.1795C21.3324 26.5169 20.7113 26.5428 20.2208 26.248L13.4999 22.2317L6.779 26.2503C6.55178 26.3852 6.29861 26.454 6.04317 26.454ZM13.4999 20.5015C13.7554 20.5015 14.0083 20.5701 14.2358 20.705L20.5787 24.4987L18.9393 17.277C18.8223 16.763 18.9968 16.2264 19.394 15.8787L24.9561 11.0006L17.5972 10.3324C17.0674 10.284 16.6117 9.95086 16.4047 9.46264L13.4999 2.65726L10.5916 9.46367C10.3869 9.94859 9.9312 10.2817 9.4026 10.3301L2.04267 10.9984L7.60465 15.8764C8.00305 16.2252 8.17732 16.7608 8.05929 17.276L6.42118 24.4975L12.7641 20.705C12.9913 20.5701 13.2445 20.5015 13.4999 20.5015ZM9.03922 8.80221C9.03922 8.80221 9.03922 8.80344 9.03799 8.80447L9.03922 8.80221ZM17.9584 8.79891L17.9596 8.80118C17.9596 8.79994 17.9596 8.79994 17.9584 8.79891Z" fill="white"/>
</svg>
