<svg width="26" height="26" viewBox="0 0 26 26" fill="none" xmlns="http://www.w3.org/2000/svg">
<path d="M6.66181 0.997986C5.02604 0.997986 3.69502 2.31688 3.69502 3.93187L3.58716 19.1435L5.2054 19.1551L5.31331 3.93781C5.31331 3.20905 5.91827 2.61623 6.66186 2.61623H22.9254V0.997986H6.66181Z" fill="white"/>
<path d="M22.9253 0.997986C21.2299 0.997986 19.8506 2.37726 19.8506 4.07269V21.1453C19.8506 22.3795 18.8462 23.3839 17.612 23.3839C16.3778 23.3839 15.3734 22.3795 15.3734 21.1453V19.1764C15.3734 18.7295 15.0112 18.3673 14.5643 18.3673H0.809148C0.362223 18.3673 0 18.7295 0 19.1764V21.1453C0 23.272 1.73017 25.0021 3.85684 25.0021V23.3839C2.62239 23.3839 1.61825 22.3795 1.61825 21.1453V19.9855H13.7552V21.1452C13.7552 23.2719 15.4853 25.0021 17.612 25.0021C19.7387 25.0021 21.4688 23.2719 21.4688 21.1452V8.49589H25.1909C25.6378 8.49589 26 8.13367 26 7.68674V4.07264C26 2.37726 24.6207 0.997986 22.9253 0.997986ZM24.3818 6.87764H21.4689V4.07264C21.4689 3.26943 22.1224 2.61623 22.9253 2.61623C23.7282 2.61623 24.3817 3.26948 24.3817 4.07264V6.87764H24.3818Z" fill="white"/>
<path d="M17.423 23.3838H3.69507V25.002H17.423V23.3838Z" fill="white"/>
<path d="M12.0291 5.50214H7.84858C7.40165 5.50214 7.03943 5.86436 7.03943 6.31128C7.03943 6.75821 7.40165 7.12043 7.84858 7.12043H12.0291C12.476 7.12043 12.8382 6.75821 12.8382 6.31128C12.8382 5.86436 12.476 5.50214 12.0291 5.50214Z" fill="white"/>
<path d="M16.8838 8.73859H7.84858C7.40165 8.73859 7.03943 9.10081 7.03943 9.54774C7.03943 9.99466 7.40165 10.3569 7.84858 10.3569H16.8838C17.3307 10.3569 17.693 9.99466 17.693 9.54774C17.693 9.10081 17.3307 8.73859 16.8838 8.73859Z" fill="white"/>
<path d="M16.8838 11.9751H7.84858C7.40165 11.9751 7.03943 12.3373 7.03943 12.7843C7.03943 13.2312 7.40165 13.5934 7.84858 13.5934H16.8838C17.3307 13.5934 17.693 13.2314 17.693 12.7843C17.693 12.3373 17.3307 11.9751 16.8838 11.9751Z" fill="white"/>
<path d="M16.8838 15.2116H7.84858C7.40165 15.2116 7.03943 15.5738 7.03943 16.0208C7.03943 16.4677 7.40165 16.8299 7.84858 16.8299H16.8838C17.3307 16.8299 17.693 16.4677 17.693 16.0208C17.693 15.5738 17.3307 15.2116 16.8838 15.2116Z" fill="white"/>
</svg>
