<svg width="24" height="24" viewBox="0 0 24 24" fill="none" xmlns="http://www.w3.org/2000/svg">
<g clip-path="url(#clip0)">
<path d="M24 7.65601L22.788 11.04V11.028C22.164 10.8 21.552 10.836 20.952 11.124C20.352 11.412 19.932 11.868 19.704 12.492C19.476 13.116 19.512 13.728 19.788 14.328C20.076 14.928 20.532 15.336 21.168 15.564V15.576L19.956 18.96L1.884 12.504L3.072 9.15601C3.696 9.38401 4.308 9.34801 4.908 9.06001C5.508 8.78401 5.916 8.32801 6.144 7.70401C6.372 7.08001 6.336 6.46801 6.048 5.86801C5.91677 5.58272 5.72888 5.32709 5.49577 5.11667C5.26266 4.90626 4.9892 4.74544 4.692 4.64401L5.916 1.20001L24 7.65601ZM18.036 14.484L19.68 9.97201C19.824 9.60001 19.8 9.19201 19.632 8.83201C19.464 8.47201 19.164 8.19601 18.792 8.05201L9.768 4.77601C9 4.50001 8.124 4.92001 7.848 5.66401L6.204 10.176C5.916 10.956 6.324 11.82 7.092 12.096L16.116 15.384C16.284 15.444 16.452 15.48 16.632 15.48C17.256 15.48 17.832 15.084 18.036 14.484ZM9.564 5.34001L18.576 8.61601C18.804 8.70001 18.984 8.86801 19.092 9.08401C19.188 9.30001 19.2 9.54001 19.116 9.76801L17.472 14.28C17.316 14.736 16.776 14.988 16.32 14.82L7.308 11.532C7.08369 11.4508 6.90081 11.2838 6.79955 11.0678C6.69829 10.8518 6.68694 10.6044 6.768 10.38L8.412 5.86801C8.532 5.52001 8.88 5.28001 9.252 5.28001C9.36 5.28001 9.456 5.30401 9.564 5.34001ZM17.748 19.908C18.168 20.232 18.648 20.4 19.188 20.4H19.2V24H0V20.448C0.66 20.448 1.236 20.208 1.692 19.74C2.16 19.284 2.4 18.708 2.4 18.048C2.4 17.388 2.16 16.824 1.692 16.356C1.224 15.888 0.66 15.648 0 15.648V12H1.26L0.924 12.96L4.368 14.184C3.756 14.376 3.3 14.928 3.3 15.6V20.4C3.3 21.228 3.972 21.9 4.8 21.9H14.4C15.228 21.9 15.9 21.228 15.9 20.4V18.3L16.896 18.66C17.04 19.176 17.328 19.596 17.748 19.908ZM3.9 20.4V15.6C3.9 15.108 4.308 14.7 4.8 14.7H5.796L15.3 18.096V20.4C15.3 20.892 14.892 21.3 14.4 21.3H4.8C4.308 21.3 3.9 20.892 3.9 20.4Z" fill="#E03432"/>
</g>
<defs>
<clipPath id="clip0">
<rect width="24" height="24" fill="white"/>
</clipPath>
</defs>
</svg>
