<svg width="26" height="26" viewBox="0 0 26 26" fill="none" xmlns="http://www.w3.org/2000/svg">
<path d="M25.2383 1.87654H21.9018C21.9139 1.50698 21.9206 1.13525 21.9206 0.761725C21.9206 0.340991 21.5795 0 21.1589 0H4.84108C4.42055 0 4.07936 0.340991 4.07936 0.761725C4.07936 1.13525 4.08611 1.50698 4.09821 1.87654H0.761719C0.340988 1.87654 0 2.21753 0 2.63826C0 6.05135 0.892044 9.27142 2.51169 11.7056C4.11269 14.1119 6.2453 15.4922 8.5491 15.6265C9.0714 16.1948 9.62344 16.6582 10.1985 17.0117V20.3972H8.92064C7.37578 20.3972 6.11914 21.654 6.11914 23.1987V24.4766H6.06499C5.64426 24.4766 5.30327 24.8177 5.30327 25.2383C5.30327 25.659 5.64426 26 6.06499 26H19.935C20.3557 26 20.6967 25.659 20.6967 25.2383C20.6967 24.8177 20.3557 24.4766 19.935 24.4766H19.8809V23.1987C19.8809 21.654 18.6242 20.3972 17.0794 20.3972H15.8015V17.0117C16.3766 16.6584 16.9288 16.1948 17.4511 15.6265C19.7547 15.4922 21.8873 14.1119 23.4885 11.7056C25.1082 9.27142 26 6.05135 26 2.63826C26 2.21753 25.659 1.87654 25.2383 1.87654ZM3.78003 10.8617C2.44405 8.85406 1.65912 6.22809 1.53951 3.39999H4.1833C4.45804 6.87655 5.27411 10.0901 6.54959 12.6409C6.75272 13.0471 6.96516 13.4309 7.18555 13.7924C5.91859 13.3139 4.74606 12.3138 3.78003 10.8617ZM18.3574 23.1987V24.4767H7.64258V23.1987C7.64258 22.4941 8.21585 21.9206 8.92064 21.9206H17.0794C17.7841 21.9206 18.3574 22.4941 18.3574 23.1987ZM14.2781 20.3972H11.7219V17.6736C12.1407 17.7839 12.5674 17.8412 13 17.8412C13.4326 17.8412 13.8593 17.7839 14.2781 17.6736V20.3972ZM14.7498 15.8613C14.7155 15.8754 14.6825 15.8925 14.651 15.9113C14.1126 16.1791 13.5594 16.3178 13 16.3178C12.4408 16.3178 11.8878 16.1791 11.3496 15.9117C11.3177 15.8925 11.2845 15.8754 11.2498 15.8609C10.6526 15.5451 10.0747 15.0683 9.52823 14.4416C9.49947 14.4006 9.46713 14.3627 9.43123 14.3282C8.8887 13.6841 8.37831 12.8918 7.91216 11.9595C6.5123 9.15994 5.70377 5.47886 5.61172 1.52345H20.3883C20.296 5.47886 19.4875 9.16013 18.0878 11.9595C17.6217 12.8918 17.1113 13.6841 16.569 14.3282C16.5329 14.3627 16.5001 14.4008 16.4716 14.4418C15.9251 15.0687 15.347 15.5453 14.7498 15.8613ZM22.22 10.8617C21.2539 12.3138 20.0814 13.3139 18.8145 13.7924C19.0348 13.4309 19.2473 13.0471 19.4504 12.6409C20.7259 10.0901 21.5418 6.87655 21.8167 3.39999H24.4605C24.3409 6.22809 23.556 8.85406 22.22 10.8617Z" fill="white"/>
</svg>
