<svg width="39" height="39" viewBox="0 0 39 39" fill="none" xmlns="http://www.w3.org/2000/svg">
<circle cx="19.5" cy="19.5" r="19.5" fill="#FF0000"/>
<path d="M30.8816 14.4956C30.619 13.5198 29.8496 12.7506 28.8739 12.4878C27.0914 12 19.9611 12 19.9611 12C19.9611 12 12.831 12 11.0485 12.4692C10.0916 12.7318 9.30343 13.52 9.04084 14.4956C8.57178 16.278 8.57178 19.9745 8.57178 19.9745C8.57178 19.9745 8.57178 23.6896 9.04084 25.4534C9.30361 26.4291 10.0728 27.1985 11.0486 27.4612C12.8498 27.9491 19.9613 27.9491 19.9613 27.9491C19.9613 27.9491 27.0914 27.9491 28.8739 27.4798C29.8498 27.2172 30.619 26.4479 30.8817 25.4722C31.3508 23.6896 31.3508 19.9933 31.3508 19.9933C31.3508 19.9933 31.3696 16.278 30.8816 14.4956Z" fill="white"/>
<path d="M17.6909 23.3896L23.6201 19.9746L17.6909 16.5596V23.3896Z" fill="#FF0000"/>
</svg>
