<svg width="12" height="16" viewBox="0 0 12 16" fill="none" xmlns="http://www.w3.org/2000/svg">
<path fill-rule="evenodd" clip-rule="evenodd" d="M7.5 1.45455V1.66537C9.66862 2.29122 11.25 4.23926 11.25 6.54545V11.6364H12V13.0909H0V11.6364H0.75V6.54545C0.75 4.23926 2.33138 2.29122 4.5 1.66537V1.45455C4.5 0.651222 5.17157 0 6 0C6.82843 0 7.5 0.651222 7.5 1.45455ZM2.25 11.6364H9.75V6.54545C9.75 4.53715 8.07107 2.90909 6 2.90909C3.92893 2.90909 2.25 4.53715 2.25 6.54545V11.6364ZM7.5 14.5455V13.8182H4.5V14.5455C4.5 15.3488 5.17157 16 6 16C6.82843 16 7.5 15.3488 7.5 14.5455Z" fill="#191A30"/>
</svg>
