<svg width="37" height="37" viewBox="0 0 37 37" fill="none" xmlns="http://www.w3.org/2000/svg">
<path d="M37 18.5C37 8.29944 28.7006 0 18.5 0C8.29944 0 0 8.29944 0 18.5C0 23.8879 2.31687 28.7443 6.00476 32.1281L5.98727 32.1436L6.58735 32.6495C6.62636 32.6824 6.66875 32.7093 6.70776 32.7416C7.02664 33.006 7.35695 33.2569 7.69331 33.4998C7.80229 33.5785 7.91127 33.6572 8.02227 33.7339C8.38151 33.9815 8.75016 34.2163 9.12689 34.4389C9.20896 34.4874 9.29171 34.5345 9.37446 34.5815C9.78684 34.8163 10.208 35.0377 10.6392 35.2408C10.6708 35.2556 10.7031 35.2691 10.7347 35.2839C12.14 35.9371 13.6402 36.4167 15.209 36.7C15.2501 36.7074 15.2911 36.7148 15.3328 36.7222C15.8199 36.8063 16.3123 36.8735 16.8108 36.9186C16.8713 36.924 16.9319 36.9273 16.9931 36.9327C17.4896 36.9738 17.9914 37 18.5 37C19.0039 37 19.501 36.9738 19.9948 36.9341C20.0574 36.9287 20.1199 36.9253 20.1825 36.9199C20.6769 36.8749 21.1653 36.8096 21.6477 36.7269C21.6894 36.7195 21.7318 36.7121 21.7735 36.704C23.3187 36.4268 24.7974 35.9579 26.1846 35.3215C26.2357 35.298 26.2875 35.2758 26.3386 35.2516C26.7537 35.0565 27.1593 34.8459 27.5569 34.6219C27.6558 34.5661 27.754 34.5096 27.8523 34.4517C28.2142 34.2385 28.5701 34.0158 28.9158 33.779C29.0403 33.6942 29.1621 33.6047 29.2852 33.5159C29.5805 33.3034 29.8704 33.0841 30.1523 32.8547C30.2149 32.8042 30.2821 32.7605 30.3434 32.7087L30.9589 32.1947L30.9407 32.1792C34.6609 28.7941 37 23.9155 37 18.5ZM1.34545 18.5C1.34545 9.04078 9.04078 1.34545 18.5 1.34545C27.9592 1.34545 35.6545 9.04078 35.6545 18.5C35.6545 23.5973 33.4177 28.1799 29.8765 31.3242C29.6787 31.1876 29.4796 31.0652 29.2757 30.9629L23.5798 28.1153C23.0685 27.8597 22.751 27.3457 22.751 26.7745V24.7853C22.8828 24.6225 23.0221 24.4382 23.166 24.2357C23.9033 23.1943 24.4947 22.0359 24.9259 20.7893C25.7782 20.3843 26.3285 19.5353 26.3285 18.5767V16.1919C26.3285 15.6086 26.1146 15.0429 25.7318 14.5982V11.4586C25.7668 11.1087 25.8906 9.139 24.4651 7.51369C23.2252 6.09827 21.2185 5.38182 18.5 5.38182C15.7815 5.38182 13.7748 6.09827 12.5349 7.51302C11.1094 9.13833 11.2332 11.1094 11.2682 11.4579V14.5975C10.8861 15.0422 10.6715 15.6079 10.6715 16.1912V18.576C10.6715 19.3167 11.0038 20.0076 11.5729 20.4738C12.1178 22.6083 13.2393 24.2242 13.6537 24.7718V26.7187C13.6537 27.2677 13.3543 27.7722 12.872 28.0359L7.55271 30.9374C7.38318 31.0295 7.215 31.1372 7.04682 31.2576C3.54931 28.1146 1.34545 23.5603 1.34545 18.5Z" fill="white"/>
</svg>
