<svg width="31" height="18" viewBox="0 0 31 18" fill="none" xmlns="http://www.w3.org/2000/svg">
<path d="M20.0335 8.09086C19.5357 7.58876 18.7286 7.58876 18.2308 8.09086C17.7331 8.59297 17.7331 9.40703 18.2308 9.90914C18.7286 10.4112 19.5357 10.4112 20.0335 9.90914C20.5312 9.40703 20.5312 8.59297 20.0335 8.09086Z" fill="#E30000"/>
<path d="M20.9348 5.36343C21.4326 4.86133 22.2396 4.86133 22.7374 5.36343C23.2352 5.86553 23.2352 6.6796 22.7374 7.1817C22.2396 7.68381 21.4326 7.68381 20.9348 7.1817C20.437 6.6796 20.437 5.86553 20.9348 5.36343Z" fill="#E30000"/>
<path d="M25.4413 8.09086C24.9436 7.58876 24.1365 7.58876 23.6387 8.09086C23.1409 8.59297 23.1409 9.40703 23.6387 9.90914C24.1365 10.4112 24.9436 10.4112 25.4413 9.90914C25.9391 9.40703 25.9391 8.59297 25.4413 8.09086Z" fill="#E30000"/>
<path d="M20.9348 10.8183C21.4326 10.3162 22.2396 10.3162 22.7374 10.8183C23.2352 11.3204 23.2352 12.1345 22.7374 12.6366C22.2396 13.1387 21.4326 13.1387 20.9348 12.6366C20.437 12.1345 20.437 11.3204 20.9348 10.8183Z" fill="#E30000"/>
<path d="M7.96328 10.2857H5.414V7.71429H7.96328V5.14286H10.5126V7.71429H13.0618V10.2857H10.5126V12.8571H7.96328V10.2857Z" fill="#E30000"/>
<path fill-rule="evenodd" clip-rule="evenodd" d="M9.23792 0C4.31017 0 0.31543 4.02944 0.31543 9C0.31543 13.9706 4.31017 18 9.23792 18H21.9843C26.9121 18 30.9068 13.9706 30.9068 9C30.9068 4.02944 26.9121 0 21.9843 0H9.23792ZM21.9843 2.57143H9.23792C5.7181 2.57143 2.86471 5.4496 2.86471 9C2.86471 12.5504 5.7181 15.4286 9.23792 15.4286H21.9843C25.5042 15.4286 28.3575 12.5504 28.3575 9C28.3575 5.4496 25.5042 2.57143 21.9843 2.57143Z" fill="#E30000"/>
</svg>
