<svg width="28" height="27" viewBox="0 0 28 27" fill="none" xmlns="http://www.w3.org/2000/svg">
<path d="M28 7.93202L26.586 11.88V11.866C25.858 11.6 25.144 11.642 24.444 11.978C23.744 12.314 23.254 12.846 22.988 13.574C22.722 14.302 22.764 15.016 23.086 15.716C23.422 16.416 23.954 16.892 24.696 17.158V17.172L23.282 21.12L2.198 13.588L3.584 9.68202C4.312 9.94802 5.026 9.90602 5.726 9.57002C6.426 9.24802 6.902 8.71602 7.168 7.98802C7.434 7.26002 7.392 6.54602 7.056 5.84602C6.90289 5.51318 6.6837 5.21495 6.41174 4.96946C6.13978 4.72398 5.82073 4.53636 5.474 4.41802L6.902 0.400024L28 7.93202ZM21.042 15.898L22.96 10.634C23.128 10.2 23.1 9.72402 22.904 9.30402C22.708 8.88402 22.358 8.56202 21.924 8.39402L11.396 4.57202C10.5 4.25002 9.478 4.74002 9.156 5.60802L7.238 10.872C6.902 11.782 7.378 12.79 8.274 13.112L18.802 16.948C18.998 17.018 19.194 17.06 19.404 17.06C20.132 17.06 20.804 16.598 21.042 15.898ZM11.158 5.23002L21.672 9.05202C21.938 9.15002 22.148 9.34602 22.274 9.59802C22.386 9.85002 22.4 10.13 22.302 10.396L20.384 15.66C20.202 16.192 19.572 16.486 19.04 16.29L8.526 12.454C8.2643 12.3592 8.05094 12.1644 7.93281 11.9124C7.81467 11.6604 7.80143 11.3718 7.896 11.11L9.814 5.84602C9.954 5.44002 10.36 5.16002 10.794 5.16002C10.92 5.16002 11.032 5.18802 11.158 5.23002ZM20.706 22.226C21.196 22.604 21.756 22.8 22.386 22.8H22.4V27H0V22.856C0.77 22.856 1.442 22.576 1.974 22.03C2.52 21.498 2.8 20.826 2.8 20.056C2.8 19.286 2.52 18.628 1.974 18.082C1.428 17.536 0.77 17.256 0 17.256V13H1.47L1.078 14.12L5.096 15.548C4.382 15.772 3.85 16.416 3.85 17.2V22.8C3.85 23.766 4.634 24.55 5.6 24.55H16.8C17.766 24.55 18.55 23.766 18.55 22.8V20.35L19.712 20.77C19.88 21.372 20.216 21.862 20.706 22.226ZM4.55 22.8V17.2C4.55 16.626 5.026 16.15 5.6 16.15H6.762L17.85 20.112V22.8C17.85 23.374 17.374 23.85 16.8 23.85H5.6C5.026 23.85 4.55 23.374 4.55 22.8Z" fill="white"/>
</svg>
