<svg width="20" height="20" viewBox="0 0 20 20" fill="none" xmlns="http://www.w3.org/2000/svg">
<path opacity="0.5" d="M18.11 2.62727L20 0.909091V5.45455H15L17.08 3.56364C16.55 2.93636 15.64 2.41818 14.36 1.99091C13.08 1.56364 11.63 1.36364 10 1.36364C8.38 1.36364 6.92 1.56364 5.64 1.99091C4.36 2.41818 3.45 2.93636 2.92 3.56364L5 5.45455H0V0.909091L1.89 2.62727C2.64 1.81818 3.74 1.19091 5.2 0.709091C6.65 0.227273 8.25 0 10 0C11.75 0 13.35 0.227273 14.8 0.709091C16.26 1.19091 17.36 1.81818 18.11 2.62727ZM17.73 13.8818V14.0455L17 18.8182C16.92 19.1636 16.76 19.4455 16.5 19.6727C16.23 19.9 15.91 20 15.53 20H8.73C8.36 20 8 19.8727 7.7 19.5909L2.73 15.1182L3.53 14.3909C3.75 14.1909 4 14.0909 4.33 14.0909H4.56L8 14.7727V5C8 4.64545 8.13 4.32727 8.43 4.05455C8.73 3.78182 9.08 3.63636 9.5 3.63636C9.89 3.63636 10.24 3.78182 10.54 4.05455C10.84 4.32727 11 4.64545 11 5V10.4545H11.78C11.88 10.4545 12.05 10.5 12.3 10.5545L16.84 12.6C17.44 12.8545 17.73 13.2818 17.73 13.8818Z" fill="#8D8C8C"/>
</svg>
