<svg width="200" height="32" viewBox="0 0 200 32" fill="none" xmlns="http://www.w3.org/2000/svg">
<path d="M12.8475 25.5593C10.4294 25.5593 8.23729 25.0396 6.27119 24C4.32768 22.9379 2.79096 21.4802 1.66102 19.6271C0.553673 17.7514 0 15.6384 0 13.2881C0 10.9379 0.553673 8.83616 1.66102 6.98305C2.79096 5.10735 4.32768 3.64972 6.27119 2.61017C8.23729 1.54802 10.4407 1.01695 12.8814 1.01695C14.9379 1.01695 16.791 1.37853 18.4407 2.1017C20.113 2.82486 21.5141 3.86441 22.6441 5.22034L19.1186 8.47458C17.5141 6.62147 15.5254 5.69492 13.1525 5.69492C11.6836 5.69492 10.3729 6.0226 9.22034 6.67797C8.0678 7.31074 7.16384 8.20339 6.50847 9.35593C5.87571 10.5085 5.55932 11.8192 5.55932 13.2881C5.55932 14.7571 5.87571 16.0678 6.50847 17.2203C7.16384 18.3729 8.0678 19.2768 9.22034 19.9322C10.3729 20.565 11.6836 20.8814 13.1525 20.8814C15.5254 20.8814 17.5141 19.9435 19.1186 18.0678L22.6441 21.322C21.5141 22.7006 20.113 23.7514 18.4407 24.4746C16.7684 25.1977 14.904 25.5593 12.8475 25.5593Z" fill="#191A30"/>
<path d="M44.0813 6.91525L35.844 26.2712C35.0079 28.3729 33.9683 29.8531 32.7254 30.7119C31.505 31.5706 30.0248 32 28.2847 32C27.3355 32 26.3977 31.8531 25.4711 31.5593C24.5446 31.2655 23.7875 30.8588 23.1999 30.339L25.1322 26.5763C25.5389 26.9379 26.0022 27.2203 26.522 27.4237C27.0644 27.6271 27.5954 27.7288 28.1152 27.7288C28.8384 27.7288 29.4259 27.548 29.8779 27.1864C30.3299 26.8475 30.7367 26.2712 31.0983 25.4576L31.166 25.2881L23.2677 6.91525H28.7254L33.844 19.2881L38.9966 6.91525H44.0813Z" fill="#191A30"/>
<path d="M57.0188 6.64407C58.7137 6.64407 60.2504 7.03955 61.629 7.83051C63.0301 8.59887 64.1262 9.69492 64.9171 11.1186C65.7081 12.5198 66.1036 14.1582 66.1036 16.0339C66.1036 17.9096 65.7081 19.5593 64.9171 20.9831C64.1262 22.3842 63.0301 23.4802 61.629 24.2712C60.2504 25.0396 58.7137 25.4237 57.0188 25.4237C54.5103 25.4237 52.6007 24.6328 51.29 23.0508V25.1525H46.2391V0H51.5273V8.84746C52.8606 7.37853 54.6911 6.64407 57.0188 6.64407ZM56.1035 21.0847C57.4595 21.0847 58.5668 20.6328 59.4256 19.7288C60.3069 18.8023 60.7476 17.5706 60.7476 16.0339C60.7476 14.4972 60.3069 13.2768 59.4256 12.3729C58.5668 11.4463 57.4595 10.9831 56.1035 10.9831C54.7476 10.9831 53.629 11.4463 52.7476 12.3729C51.8889 13.2768 51.4595 14.4972 51.4595 16.0339C51.4595 17.5706 51.8889 18.8023 52.7476 19.7288C53.629 20.6328 54.7476 21.0847 56.1035 21.0847Z" fill="#191A30"/>
<path d="M87.508 16.1017C87.508 16.1695 87.4741 16.6441 87.4063 17.5254H73.6096C73.8582 18.6554 74.4458 19.548 75.3724 20.2034C76.2989 20.8588 77.4515 21.1864 78.83 21.1864C79.7791 21.1864 80.6153 21.0508 81.3385 20.7797C82.0842 20.4859 82.7735 20.0339 83.4062 19.4237L86.2198 22.4746C84.5023 24.4407 81.9938 25.4237 78.6944 25.4237C76.6379 25.4237 74.8187 25.0282 73.2368 24.2373C71.6548 23.4237 70.4345 22.3051 69.5757 20.8814C68.717 19.4576 68.2876 17.8418 68.2876 16.0339C68.2876 14.2486 68.7057 12.6441 69.5418 11.2203C70.4006 9.77401 71.5644 8.65537 73.0334 7.86441C74.5249 7.05085 76.1859 6.64407 78.0164 6.64407C79.8017 6.64407 81.4176 7.02825 82.8639 7.79661C84.3102 8.56497 85.4402 9.67232 86.2537 11.1186C87.0899 12.5424 87.508 14.2034 87.508 16.1017ZM78.0503 10.6441C76.8526 10.6441 75.8469 10.9831 75.0334 11.661C74.2198 12.339 73.7226 13.2655 73.5418 14.4407H82.5249C82.3441 13.2881 81.8469 12.3729 81.0334 11.6949C80.2198 10.9944 79.2255 10.6441 78.0503 10.6441Z" fill="#191A30"/>
<path d="M96.0795 9.32203C96.7122 8.44068 97.5597 7.77401 98.6218 7.32203C99.7066 6.87006 100.95 6.64407 102.351 6.64407V11.5254C101.763 11.4802 101.368 11.4576 101.164 11.4576C99.6501 11.4576 98.4636 11.887 97.6049 12.7458C96.7461 13.5819 96.3167 14.8475 96.3167 16.5424V25.1525H91.0286V6.91525H96.0795V9.32203Z" fill="#191A30"/>
<path d="M113.797 25.5593C111.921 25.5593 110.102 25.3107 108.339 24.8135C106.599 24.2938 105.198 23.6271 104.136 22.8135L106 18.678C107.017 19.4237 108.226 20.0226 109.627 20.4746C111.029 20.9265 112.43 21.1525 113.831 21.1525C115.39 21.1525 116.543 20.9265 117.288 20.4746C118.034 20 118.407 19.3785 118.407 18.6102C118.407 18.0452 118.181 17.5819 117.729 17.2203C117.3 16.8361 116.735 16.5311 116.034 16.3051C115.356 16.0791 114.43 15.8305 113.255 15.5593C111.447 15.1299 109.966 14.7006 108.814 14.2712C107.661 13.8418 106.667 13.1525 105.831 12.2034C105.017 11.2542 104.61 9.98869 104.61 8.40677C104.61 7.02824 104.983 5.7853 105.729 4.67795C106.475 3.54801 107.593 2.65535 109.085 1.99999C110.599 1.34462 112.441 1.01694 114.61 1.01694C116.125 1.01694 117.605 1.19773 119.051 1.55931C120.497 1.92089 121.763 2.44067 122.848 3.11863L121.153 7.28812C118.961 6.04519 116.769 5.42372 114.577 5.42372C113.04 5.42372 111.899 5.6723 111.153 6.16948C110.43 6.66665 110.068 7.32202 110.068 8.13558C110.068 8.94914 110.486 9.55931 111.322 9.96609C112.181 10.3503 113.48 10.7345 115.221 11.1186C117.029 11.548 118.509 11.9774 119.661 12.4068C120.814 12.8361 121.797 13.5141 122.61 14.4407C123.447 15.3672 123.865 16.6215 123.865 18.2034C123.865 19.5593 123.48 20.8022 122.712 21.9322C121.966 23.0395 120.836 23.9209 119.322 24.5763C117.808 25.2316 115.966 25.5593 113.797 25.5593Z" fill="#E03432"/>
<path d="M159.327 25.4237C157.406 25.4237 155.677 25.0282 154.14 24.2373C152.626 23.4237 151.44 22.3051 150.581 20.8813C149.722 19.4576 149.293 17.8418 149.293 16.0339C149.293 14.226 149.722 12.6102 150.581 11.1864C151.44 9.7627 152.626 8.65535 154.14 7.86439C155.677 7.05083 157.406 6.64406 159.327 6.64406C161.247 6.64406 162.965 7.05083 164.479 7.86439C165.993 8.65535 167.18 9.7627 168.038 11.1864C168.897 12.6102 169.327 14.226 169.327 16.0339C169.327 17.8418 168.897 19.4576 168.038 20.8813C167.18 22.3051 165.993 23.4237 164.479 24.2373C162.965 25.0282 161.247 25.4237 159.327 25.4237ZM159.327 21.0847C160.682 21.0847 161.79 20.6328 162.649 19.7288C163.53 18.8022 163.971 17.5706 163.971 16.0339C163.971 14.4972 163.53 13.2768 162.649 12.3729C161.79 11.4463 160.682 10.983 159.327 10.983C157.971 10.983 156.852 11.4463 155.971 12.3729C155.089 13.2768 154.649 14.4972 154.649 16.0339C154.649 17.5706 155.089 18.8022 155.971 19.7288C156.852 20.6328 157.971 21.0847 159.327 21.0847Z" fill="#E03432"/>
<path d="M177.912 9.32202C178.545 8.44066 179.392 7.774 180.454 7.32202C181.539 6.87004 182.782 6.64406 184.183 6.64406V11.5254C183.596 11.4802 183.2 11.4576 182.997 11.4576C181.483 11.4576 180.296 11.887 179.438 12.7458C178.579 13.5819 178.149 14.8474 178.149 16.5424V25.1525H172.861V6.91524H177.912V9.32202Z" fill="#E03432"/>
<path d="M199.719 24.2712C199.2 24.6554 198.555 24.9491 197.787 25.1525C197.041 25.3333 196.25 25.4237 195.414 25.4237C193.245 25.4237 191.561 24.87 190.363 23.7627C189.188 22.6554 188.601 21.0282 188.601 18.8813V11.3898H185.787V7.32202H188.601V2.88134H193.889V7.32202H198.431V11.3898H193.889V18.8135C193.889 19.5819 194.081 20.1808 194.465 20.6102C194.872 21.0169 195.437 21.2203 196.16 21.2203C196.996 21.2203 197.708 20.9943 198.296 20.5424L199.719 24.2712Z" fill="#E03432"/>
<path fill-rule="evenodd" clip-rule="evenodd" d="M138.024 6.64406C139.719 6.64406 141.255 7.03954 142.634 7.83049C144.035 8.59886 145.131 9.6949 145.922 11.1186C146.713 12.5198 147.109 14.1582 147.109 16.0339C147.109 17.9096 146.713 19.5593 145.922 20.983C145.131 22.3842 144.035 23.4802 142.634 24.2712C141.255 25.0395 139.719 25.4237 138.024 25.4237C135.696 25.4237 133.866 24.6893 132.532 23.2203V31.7288H127.244V6.91524H132.295V9.01694C133.606 7.43502 135.515 6.64406 138.024 6.64406ZM140.431 19.7288C139.572 20.6328 138.465 21.0847 137.109 21.0847C135.753 21.0847 134.634 20.6328 133.753 19.7288C132.894 18.8022 132.465 17.5706 132.465 16.0339C132.465 14.4972 132.894 13.2768 133.753 12.3729C134.634 11.4463 135.753 10.983 137.109 10.983C138.465 10.983 139.572 11.4463 140.431 12.3729C141.312 13.2768 141.753 14.4972 141.753 16.0339C141.753 17.5706 141.312 18.8022 140.431 19.7288Z" fill="#E03432"/>
</svg>
