<svg width="24" height="24" viewBox="0 0 24 24" fill="none" xmlns="http://www.w3.org/2000/svg">
<g clip-path="url(#clip0)">
<path d="M12.7531 0H11.2469C10.0286 0 9.03745 0.991125 9.03745 2.20936V2.71894C8.51953 2.88441 8.01633 3.09328 7.53291 3.34345L7.17178 2.98233C6.29714 2.10661 4.89609 2.1323 4.04686 2.98266L2.98228 4.04719C2.13155 4.89698 2.10708 6.29756 2.98256 7.17211L3.34341 7.53295C3.09323 8.01638 2.88441 8.51948 2.71889 9.0375H2.20936C0.991172 9.0375 0 10.0286 0 11.2469V12.7531C0 13.9714 0.991172 14.9625 2.20941 14.9625H2.71894C2.88445 15.4805 3.09328 15.9836 3.34345 16.467L2.98233 16.8281C2.10736 17.7022 2.1315 19.1029 2.98261 19.953L4.04728 21.0177C4.89848 21.87 6.2992 21.8913 7.17216 21.0174L7.53295 20.6566C8.01638 20.9067 8.51958 21.1156 9.0375 21.2811V21.7906C9.0375 23.0089 10.0286 24 11.2469 24H12.7531C13.9714 24 14.9625 23.0089 14.9625 21.7906V21.2811C15.4804 21.1156 15.9836 20.9067 16.467 20.6565L16.8282 21.0177C17.7028 21.8934 19.1039 21.8677 19.9531 21.0173L21.0177 19.9528C21.8684 19.103 21.8929 17.7024 21.0174 16.8279L20.6565 16.467C20.9067 15.9836 21.1155 15.4805 21.2811 14.9625H21.7906C23.0088 14.9625 24 13.9714 24 12.7531V11.2469C24 10.0286 23.0088 9.0375 21.7906 9.0375H21.2811C21.1155 8.51953 20.9067 8.01638 20.6565 7.53295L21.0177 7.17183C21.8926 6.2978 21.8685 4.89708 21.0174 4.04691L19.9527 2.98228C19.1015 2.12991 17.7008 2.10863 16.8278 2.98256L16.467 3.34336C15.9836 3.09324 15.4804 2.88436 14.9625 2.71885V2.20927C14.9625 0.991125 13.9714 0 12.7531 0ZM7.76798 4.82016C8.43956 4.42298 9.16238 4.12294 9.91631 3.92836C10.2268 3.84825 10.4438 3.56822 10.4438 3.24755V2.20936C10.4438 1.76653 10.8041 1.40625 11.2469 1.40625H12.7531C13.196 1.40625 13.5563 1.76653 13.5563 2.20936V3.24755C13.5563 3.56822 13.7732 3.84825 14.0837 3.92836C14.8377 4.12294 15.5605 4.42298 16.2321 4.82016C16.5084 4.98356 16.8602 4.93913 17.0872 4.71211L17.8226 3.97669C18.1396 3.65925 18.6488 3.66661 18.9581 3.97636L20.0234 5.04164C20.3319 5.3498 20.3422 5.85905 20.0237 6.17719L19.288 6.91289C19.061 7.13986 19.0166 7.4917 19.1799 7.76798C19.5771 8.43952 19.8771 9.16233 20.0717 9.91631C20.1518 10.2268 20.4319 10.4437 20.7525 10.4437H21.7906C22.2335 10.4437 22.5938 10.804 22.5938 11.2468V12.7531C22.5938 13.1959 22.2335 13.5562 21.7906 13.5562H20.7525C20.4318 13.5562 20.1518 13.7731 20.0717 14.0836C19.8771 14.8376 19.5771 15.5604 19.1799 16.2319C19.0166 16.5082 19.061 16.86 19.288 17.087L20.0234 17.8224C20.3413 18.14 20.333 18.649 20.0237 18.958L18.9585 20.0232C18.6497 20.3324 18.1404 20.3415 17.8229 20.0235L17.0872 19.2878C16.8603 19.0608 16.5083 19.0163 16.2321 19.1797C15.5605 19.5769 14.8377 19.877 14.0838 20.0715C13.7733 20.1517 13.5563 20.4317 13.5563 20.7524V21.7906C13.5563 22.2335 13.196 22.5938 12.7532 22.5938H11.247C10.8041 22.5938 10.4438 22.2335 10.4438 21.7906V20.7525C10.4438 20.4318 10.2269 20.1518 9.91636 20.0716C9.16242 19.8771 8.43961 19.577 7.76803 19.1798C7.49166 19.0165 7.13986 19.0609 6.91289 19.2879L6.17752 20.0233C5.86045 20.3407 5.35125 20.3334 5.04202 20.0236L3.97669 18.9584C3.66816 18.6502 3.65784 18.141 3.97641 17.8228L4.71211 17.0871C4.93908 16.8601 4.98352 16.5083 4.82016 16.232C4.42298 15.5605 4.12298 14.8377 3.92841 14.0837C3.84825 13.7732 3.56822 13.5563 3.24759 13.5563H2.20941C1.76658 13.5563 1.40625 13.196 1.40625 12.7531V11.2469C1.40625 10.804 1.76658 10.4437 2.20941 10.4437H3.24755C3.56822 10.4437 3.8482 10.2268 3.92836 9.91636C4.12294 9.16238 4.42298 8.43956 4.82011 7.76803C4.98347 7.49175 4.93903 7.13991 4.71206 6.91294L3.97664 6.17752C3.65873 5.85998 3.66703 5.35092 3.97636 5.04197L5.04159 3.97673C5.35036 3.66755 5.85961 3.6585 6.17714 3.97645L6.9128 4.71216C7.08005 4.87936 7.428 5.02125 7.76798 4.82016Z" fill="white"/>
<path d="M12.0002 6.77818C9.1208 6.77818 6.77832 9.12071 6.77832 12C6.77832 14.8794 9.1208 17.2219 12.0002 17.2219C14.8796 17.2219 17.2221 14.8794 17.2221 12C17.2221 9.12071 14.8796 6.77818 12.0002 6.77818ZM12.0002 15.8157C9.89621 15.8157 8.18457 14.104 8.18457 12C8.18457 9.89611 9.89626 8.18443 12.0002 8.18443C14.1041 8.18443 15.8158 9.89611 15.8158 12C15.8158 14.104 14.1042 15.8157 12.0002 15.8157Z" fill="white"/>
</g>
<defs>
<clipPath id="clip0">
<rect width="24" height="24" fill="white" transform="matrix(1 0 0 -1 0 24)"/>
</clipPath>
</defs>
</svg>
